<svg xmlns="http://www.w3.org/2000/svg" xmlns:xlink="http://www.w3.org/1999/xlink" width="410" height="142" viewBox="0 0 410 142">
  <defs>
    <filter id="Path_17" x="56.552" y="46" width="299.948" height="50" filterUnits="userSpaceOnUse">
      <feOffset dy="10" input="SourceAlpha"/>
      <feGaussianBlur stdDeviation="5" result="blur"/>
      <feFlood flood-opacity="0.161"/>
      <feComposite operator="in" in2="blur"/>
      <feComposite in="SourceGraphic"/>
    </filter>
    <filter id="Path_7" x="134" y="0" width="142" height="142" filterUnits="userSpaceOnUse">
      <feOffset dy="10" input="SourceAlpha"/>
      <feGaussianBlur stdDeviation="5" result="blur-2"/>
      <feFlood flood-opacity="0.161"/>
      <feComposite operator="in" in2="blur-2"/>
      <feComposite in="SourceGraphic"/>
    </filter>
    <filter id="Path_9" x="0" y="0" width="142" height="142" filterUnits="userSpaceOnUse">
      <feOffset dy="10" input="SourceAlpha"/>
      <feGaussianBlur stdDeviation="5" result="blur-3"/>
      <feFlood flood-opacity="0.161"/>
      <feComposite operator="in" in2="blur-3"/>
      <feComposite in="SourceGraphic"/>
    </filter>
    <filter id="Path_8" x="268" y="0" width="142" height="142" filterUnits="userSpaceOnUse">
      <feOffset dy="10" input="SourceAlpha"/>
      <feGaussianBlur stdDeviation="5" result="blur-4"/>
      <feFlood flood-opacity="0.161"/>
      <feComposite operator="in" in2="blur-4"/>
      <feComposite in="SourceGraphic"/>
    </filter>
  </defs>
  <g id="dots-p" transform="translate(498 5)">
    <g transform="matrix(1, 0, 0, 1, -498, -5)" filter="url(#Path_17)">
      <path id="Path_17-2" data-name="Path 17" d="M198.711,8h-8.9V8H72.169V8H64.26V8h-8.9V8h0V8h8.9V8h7.909V8H189.813V8h8.9V8h7.909V8h0V8h-7.909V8Z" transform="translate(74.05 53.5)" fill="#a0f" stroke="#ab00ff" stroke-linecap="round" stroke-linejoin="round" stroke-width="5"/>
    </g>
    <g transform="matrix(1, 0, 0, 1, -498, -5)" filter="url(#Path_7)">
      <g id="Path_7-2" data-name="Path 7" transform="translate(149 5)" fill="#a0f">
        <path d="M 56 111.5 C 48.50732803344727 111.5 41.23904418945312 110.0326538085938 34.39705657958984 107.1387405395508 C 31.10855674743652 105.7478256225586 27.93675804138184 104.0262298583984 24.96977233886719 102.0217742919922 C 22.03084373474121 100.0362701416016 19.26718521118164 97.75604248046875 16.75557136535645 95.24443054199219 C 14.24395751953125 92.73281097412109 11.96372890472412 89.96915435791016 9.978228569030762 87.03022766113281 C 7.973771572113037 84.06324005126953 6.252171516418457 80.89144134521484 4.861257076263428 77.60294342041016 C 1.967342853546143 70.76095581054688 0.5 63.49267196655273 0.5 56 C 0.5 48.50732803344727 1.967342853546143 41.23904418945312 4.861257076263428 34.39705657958984 C 6.252171516418457 31.10855674743652 7.973771572113037 27.93675804138184 9.978228569030762 24.96977233886719 C 11.96372890472412 22.03084373474121 14.24395751953125 19.26718521118164 16.75557136535645 16.75557136535645 C 19.26718521118164 14.24395751953125 22.03084373474121 11.96372890472412 24.96977233886719 9.978228569030762 C 27.93675804138184 7.973771572113037 31.10855674743652 6.252171516418457 34.39705657958984 4.861257076263428 C 41.23904418945312 1.967342853546143 48.50732803344727 0.5 56 0.5 C 63.49267196655273 0.5 70.76095581054688 1.967342853546143 77.60294342041016 4.861257076263428 C 80.89144134521484 6.252171516418457 84.06324005126953 7.973771572113037 87.03022766113281 9.978228569030762 C 89.96915435791016 11.96372890472412 92.73281097412109 14.24395751953125 95.24443054199219 16.75557136535645 C 97.75604248046875 19.26718521118164 100.0362701416016 22.03084373474121 102.0217742919922 24.96977233886719 C 104.0262298583984 27.93675804138184 105.7478256225586 31.10855674743652 107.1387405395508 34.39705657958984 C 110.0326538085938 41.23904418945312 111.5 48.50732803344727 111.5 56 C 111.5 63.49267196655273 110.0326538085938 70.76095581054688 107.1387405395508 77.60294342041016 C 105.7478256225586 80.89144134521484 104.0262298583984 84.06324005126953 102.0217742919922 87.03022766113281 C 100.0362701416016 89.96915435791016 97.75604248046875 92.73281097412109 95.24443054199219 95.24443054199219 C 92.73281097412109 97.75604248046875 89.96915435791016 100.0362701416016 87.03022766113281 102.0217742919922 C 84.06324005126953 104.0262298583984 80.89144134521484 105.7478256225586 77.60294342041016 107.1387405395508 C 70.76095581054688 110.0326538085938 63.49267196655273 111.5 56 111.5 Z" stroke="none"/>
        <path d="M 56 1 C 48.57461547851562 1 41.37186431884766 2.454048156738281 34.59182739257812 5.321769714355469 C 31.33306121826172 6.700111389160156 28.18991088867188 8.406150817871094 25.24967956542969 10.39253997802734 C 22.33712005615234 12.3602294921875 19.59824371337891 14.62001800537109 17.10912322998047 17.10912322998047 C 14.62001800537109 19.59824371337891 12.3602294921875 22.33712005615234 10.39253997802734 25.24967956542969 C 8.406150817871094 28.18991088867188 6.700111389160156 31.33306121826172 5.321769714355469 34.59182739257812 C 2.454048156738281 41.37186431884766 1 48.57461547851562 1 56 C 1 63.42538452148438 2.454048156738281 70.62814331054688 5.321769714355469 77.40817260742188 C 6.700111389160156 80.66693878173828 8.406150817871094 83.81008911132812 10.39253997802734 86.75032043457031 C 12.3602294921875 89.66287231445312 14.62001800537109 92.40175628662109 17.10912322998047 94.89087677001953 C 19.59824371337891 97.37998199462891 22.33712005615234 99.6397705078125 25.24967956542969 101.6074600219727 C 28.18991088867188 103.5938491821289 31.33306121826172 105.2998962402344 34.59182739257812 106.6782302856445 C 41.37186431884766 109.5459518432617 48.57461547851562 111 56 111 C 63.42538452148438 111 70.62814331054688 109.5459518432617 77.40817260742188 106.6782302856445 C 80.66693878173828 105.2998962402344 83.81008911132812 103.5938491821289 86.75032043457031 101.6074600219727 C 89.66287231445312 99.6397705078125 92.40175628662109 97.37998199462891 94.89087677001953 94.89087677001953 C 97.37998199462891 92.40175628662109 99.6397705078125 89.66287231445312 101.6074600219727 86.75032043457031 C 103.5938491821289 83.81008911132812 105.2998962402344 80.66693878173828 106.6782302856445 77.40817260742188 C 109.5459518432617 70.62814331054688 111 63.42538452148438 111 56 C 111 48.57461547851562 109.5459518432617 41.37186431884766 106.6782302856445 34.59182739257812 C 105.2998962402344 31.33306121826172 103.5938491821289 28.18991088867188 101.6074600219727 25.24967956542969 C 99.6397705078125 22.33712005615234 97.37998199462891 19.59824371337891 94.89087677001953 17.10912322998047 C 92.40175628662109 14.62001800537109 89.66287231445312 12.3602294921875 86.75032043457031 10.39253997802734 C 83.81008911132812 8.406150817871094 80.66693878173828 6.700111389160156 77.40817260742188 5.321769714355469 C 70.62814331054688 2.454048156738281 63.42538452148438 1 56 1 M 56 0 C 86.92794036865234 0 112 25.07205963134766 112 56 C 112 86.92794036865234 86.92794036865234 112 56 112 C 25.07205963134766 112 0 86.92794036865234 0 56 C 0 25.07205963134766 25.07205963134766 0 56 0 Z" stroke="none" fill="#ab00ff"/>
      </g>
    </g>
    <g transform="matrix(1, 0, 0, 1, -498, -5)" filter="url(#Path_9)">
      <g id="Path_9-2" data-name="Path 9" transform="translate(15 5)" fill="#a0f">
        <path d="M 56 111.5 C 48.50732803344727 111.5 41.23904418945312 110.0326538085938 34.39705657958984 107.1387405395508 C 31.10855674743652 105.7478256225586 27.93675804138184 104.0262298583984 24.96977233886719 102.0217742919922 C 22.03084373474121 100.0362701416016 19.26718521118164 97.75604248046875 16.75557136535645 95.24443054199219 C 14.24395751953125 92.73281097412109 11.96372890472412 89.96915435791016 9.978228569030762 87.03022766113281 C 7.973771572113037 84.06324005126953 6.252171516418457 80.89144134521484 4.861257076263428 77.60294342041016 C 1.967342853546143 70.76095581054688 0.5 63.49267196655273 0.5 56 C 0.5 48.50732803344727 1.967342853546143 41.23904418945312 4.861257076263428 34.39705657958984 C 6.252171516418457 31.10855674743652 7.973771572113037 27.93675804138184 9.978228569030762 24.96977233886719 C 11.96372890472412 22.03084373474121 14.24395751953125 19.26718521118164 16.75557136535645 16.75557136535645 C 19.26718521118164 14.24395751953125 22.03084373474121 11.96372890472412 24.96977233886719 9.978228569030762 C 27.93675804138184 7.973771572113037 31.10855674743652 6.252171516418457 34.39705657958984 4.861257076263428 C 41.23904418945312 1.967342853546143 48.50732803344727 0.5 56 0.5 C 63.49267196655273 0.5 70.76095581054688 1.967342853546143 77.60294342041016 4.861257076263428 C 80.89144134521484 6.252171516418457 84.06324005126953 7.973771572113037 87.03022766113281 9.978228569030762 C 89.96915435791016 11.96372890472412 92.73281097412109 14.24395751953125 95.24443054199219 16.75557136535645 C 97.75604248046875 19.26718521118164 100.0362701416016 22.03084373474121 102.0217742919922 24.96977233886719 C 104.0262298583984 27.93675804138184 105.7478256225586 31.10855674743652 107.1387405395508 34.39705657958984 C 110.0326538085938 41.23904418945312 111.5 48.50732803344727 111.5 56 C 111.5 63.49267196655273 110.0326538085938 70.76095581054688 107.1387405395508 77.60294342041016 C 105.7478256225586 80.89144134521484 104.0262298583984 84.06324005126953 102.0217742919922 87.03022766113281 C 100.0362701416016 89.96915435791016 97.75604248046875 92.73281097412109 95.24443054199219 95.24443054199219 C 92.73281097412109 97.75604248046875 89.96915435791016 100.0362701416016 87.03022766113281 102.0217742919922 C 84.06324005126953 104.0262298583984 80.89144134521484 105.7478256225586 77.60294342041016 107.1387405395508 C 70.76095581054688 110.0326538085938 63.49267196655273 111.5 56 111.5 Z" stroke="none"/>
        <path d="M 56 1 C 48.57461547851562 1 41.37186431884766 2.454048156738281 34.59182739257812 5.321769714355469 C 31.33306121826172 6.700111389160156 28.18991088867188 8.406150817871094 25.24967956542969 10.39253997802734 C 22.33712005615234 12.3602294921875 19.59824371337891 14.62001800537109 17.10912322998047 17.10912322998047 C 14.62001800537109 19.59824371337891 12.3602294921875 22.33712005615234 10.39253997802734 25.24967956542969 C 8.406150817871094 28.18991088867188 6.700111389160156 31.33306121826172 5.321769714355469 34.59182739257812 C 2.454048156738281 41.37186431884766 1 48.57461547851562 1 56 C 1 63.42538452148438 2.454048156738281 70.62814331054688 5.321769714355469 77.40817260742188 C 6.700111389160156 80.66693878173828 8.406150817871094 83.81008911132812 10.39253997802734 86.75032043457031 C 12.3602294921875 89.66287231445312 14.62001800537109 92.40175628662109 17.10912322998047 94.89087677001953 C 19.59824371337891 97.37998199462891 22.33712005615234 99.6397705078125 25.24967956542969 101.6074600219727 C 28.18991088867188 103.5938491821289 31.33306121826172 105.2998962402344 34.59182739257812 106.6782302856445 C 41.37186431884766 109.5459518432617 48.57461547851562 111 56 111 C 63.42538452148438 111 70.62814331054688 109.5459518432617 77.40817260742188 106.6782302856445 C 80.66693878173828 105.2998962402344 83.81008911132812 103.5938491821289 86.75032043457031 101.6074600219727 C 89.66287231445312 99.6397705078125 92.40175628662109 97.37998199462891 94.89087677001953 94.89087677001953 C 97.37998199462891 92.40175628662109 99.6397705078125 89.66287231445312 101.6074600219727 86.75032043457031 C 103.5938491821289 83.81008911132812 105.2998962402344 80.66693878173828 106.6782302856445 77.40817260742188 C 109.5459518432617 70.62814331054688 111 63.42538452148438 111 56 C 111 48.57461547851562 109.5459518432617 41.37186431884766 106.6782302856445 34.59182739257812 C 105.2998962402344 31.33306121826172 103.5938491821289 28.18991088867188 101.6074600219727 25.24967956542969 C 99.6397705078125 22.33712005615234 97.37998199462891 19.59824371337891 94.89087677001953 17.10912322998047 C 92.40175628662109 14.62001800537109 89.66287231445312 12.3602294921875 86.75032043457031 10.39253997802734 C 83.81008911132812 8.406150817871094 80.66693878173828 6.700111389160156 77.40817260742188 5.321769714355469 C 70.62814331054688 2.454048156738281 63.42538452148438 1 56 1 M 56 0 C 86.92794036865234 0 112 25.07205963134766 112 56 C 112 86.92794036865234 86.92794036865234 112 56 112 C 25.07205963134766 112 0 86.92794036865234 0 56 C 0 25.07205963134766 25.07205963134766 0 56 0 Z" stroke="none" fill="#ab00ff"/>
      </g>
    </g>
    <g transform="matrix(1, 0, 0, 1, -498, -5)" filter="url(#Path_8)">
      <g id="Path_8-2" data-name="Path 8" transform="translate(283 5)" fill="#a0f">
        <path d="M 56 111.5 C 48.50732803344727 111.5 41.23904418945312 110.0326538085938 34.39705657958984 107.1387405395508 C 31.10855674743652 105.7478256225586 27.93675804138184 104.0262298583984 24.96977233886719 102.0217742919922 C 22.03084373474121 100.0362701416016 19.26718521118164 97.75604248046875 16.75557136535645 95.24443054199219 C 14.24395751953125 92.73281097412109 11.96372890472412 89.96915435791016 9.978228569030762 87.03022766113281 C 7.973771572113037 84.06324005126953 6.252171516418457 80.89144134521484 4.861257076263428 77.60294342041016 C 1.967342853546143 70.76095581054688 0.5 63.49267196655273 0.5 56 C 0.5 48.50732803344727 1.967342853546143 41.23904418945312 4.861257076263428 34.39705657958984 C 6.252171516418457 31.10855674743652 7.973771572113037 27.93675804138184 9.978228569030762 24.96977233886719 C 11.96372890472412 22.03084373474121 14.24395751953125 19.26718521118164 16.75557136535645 16.75557136535645 C 19.26718521118164 14.24395751953125 22.03084373474121 11.96372890472412 24.96977233886719 9.978228569030762 C 27.93675804138184 7.973771572113037 31.10855674743652 6.252171516418457 34.39705657958984 4.861257076263428 C 41.23904418945312 1.967342853546143 48.50732803344727 0.5 56 0.5 C 63.49267196655273 0.5 70.76095581054688 1.967342853546143 77.60294342041016 4.861257076263428 C 80.89144134521484 6.252171516418457 84.06324005126953 7.973771572113037 87.03022766113281 9.978228569030762 C 89.96915435791016 11.96372890472412 92.73281097412109 14.24395751953125 95.24443054199219 16.75557136535645 C 97.75604248046875 19.26718521118164 100.0362701416016 22.03084373474121 102.0217742919922 24.96977233886719 C 104.0262298583984 27.93675804138184 105.7478256225586 31.10855674743652 107.1387405395508 34.39705657958984 C 110.0326538085938 41.23904418945312 111.5 48.50732803344727 111.5 56 C 111.5 63.49267196655273 110.0326538085938 70.76095581054688 107.1387405395508 77.60294342041016 C 105.7478256225586 80.89144134521484 104.0262298583984 84.06324005126953 102.0217742919922 87.03022766113281 C 100.0362701416016 89.96915435791016 97.75604248046875 92.73281097412109 95.24443054199219 95.24443054199219 C 92.73281097412109 97.75604248046875 89.96915435791016 100.0362701416016 87.03022766113281 102.0217742919922 C 84.06324005126953 104.0262298583984 80.89144134521484 105.7478256225586 77.60294342041016 107.1387405395508 C 70.76095581054688 110.0326538085938 63.49267196655273 111.5 56 111.5 Z" stroke="none"/>
        <path d="M 56 1 C 48.57461547851562 1 41.37186431884766 2.454048156738281 34.59182739257812 5.321769714355469 C 31.33306121826172 6.700111389160156 28.18991088867188 8.406150817871094 25.24967956542969 10.39253997802734 C 22.33712005615234 12.3602294921875 19.59824371337891 14.62001800537109 17.10912322998047 17.10912322998047 C 14.62001800537109 19.59824371337891 12.3602294921875 22.33712005615234 10.39253997802734 25.24967956542969 C 8.406150817871094 28.18991088867188 6.700111389160156 31.33306121826172 5.321769714355469 34.59182739257812 C 2.454048156738281 41.37186431884766 1 48.57461547851562 1 56 C 1 63.42538452148438 2.454048156738281 70.62814331054688 5.321769714355469 77.40817260742188 C 6.700111389160156 80.66693878173828 8.406150817871094 83.81008911132812 10.39253997802734 86.75032043457031 C 12.3602294921875 89.66287231445312 14.62001800537109 92.40175628662109 17.10912322998047 94.89087677001953 C 19.59824371337891 97.37998199462891 22.33712005615234 99.6397705078125 25.24967956542969 101.6074600219727 C 28.18991088867188 103.5938491821289 31.33306121826172 105.2998962402344 34.59182739257812 106.6782302856445 C 41.37186431884766 109.5459518432617 48.57461547851562 111 56 111 C 63.42538452148438 111 70.62814331054688 109.5459518432617 77.40817260742188 106.6782302856445 C 80.66693878173828 105.2998962402344 83.81008911132812 103.5938491821289 86.75032043457031 101.6074600219727 C 89.66287231445312 99.6397705078125 92.40175628662109 97.37998199462891 94.89087677001953 94.89087677001953 C 97.37998199462891 92.40175628662109 99.6397705078125 89.66287231445312 101.6074600219727 86.75032043457031 C 103.5938491821289 83.81008911132812 105.2998962402344 80.66693878173828 106.6782302856445 77.40817260742188 C 109.5459518432617 70.62814331054688 111 63.42538452148438 111 56 C 111 48.57461547851562 109.5459518432617 41.37186431884766 106.6782302856445 34.59182739257812 C 105.2998962402344 31.33306121826172 103.5938491821289 28.18991088867188 101.6074600219727 25.24967956542969 C 99.6397705078125 22.33712005615234 97.37998199462891 19.59824371337891 94.89087677001953 17.10912322998047 C 92.40175628662109 14.62001800537109 89.66287231445312 12.3602294921875 86.75032043457031 10.39253997802734 C 83.81008911132812 8.406150817871094 80.66693878173828 6.700111389160156 77.40817260742188 5.321769714355469 C 70.62814331054688 2.454048156738281 63.42538452148438 1 56 1 M 56 0 C 86.92794036865234 0 112 25.07205963134766 112 56 C 112 86.92794036865234 86.92794036865234 112 56 112 C 25.07205963134766 112 0 86.92794036865234 0 56 C 0 25.07205963134766 25.07205963134766 0 56 0 Z" stroke="none" fill="#ab00ff"/>
      </g>
    </g>
  </g>
</svg>
