<svg xmlns="http://www.w3.org/2000/svg" width="405.336" height="490.668" viewBox="0 0 405.336 490.668">
  <g id="hand-pointer" transform="translate(-0.332)">
    <path id="Path_1" data-name="Path 1" d="M133.668,298.668a16.006,16.006,0,0,1-16-16V48a48,48,0,0,1,96,0V261.332a16,16,0,0,1-32,0V48a16,16,0,0,0-32,0V282.668A16.006,16.006,0,0,1,133.668,298.668Zm0,0" fill="#fff"/>
    <path id="Path_2" data-name="Path 2" d="M261.668,277.332a16.006,16.006,0,0,1-16-16V176a16,16,0,0,0-32,0,16,16,0,0,1-32,0,48,48,0,0,1,96,0v85.332A16.006,16.006,0,0,1,261.668,277.332Zm0,0" fill="#fff"/>
    <path id="Path_3" data-name="Path 3" d="M325.668,277.332a16.006,16.006,0,0,1-16-16v-64a16,16,0,0,0-32,0,16,16,0,0,1-32,0,48,48,0,0,1,96,0v64A16.006,16.006,0,0,1,325.668,277.332Zm0,0" fill="#fff"/>
    <path id="Path_4" data-name="Path 4" d="M304.332,490.668h-117.7a101.99,101.99,0,0,1-86.25-48.152L7.906,292.566c-.02-.043-.02-.066-.043-.086A47,47,0,0,1,.332,266.668a48.06,48.06,0,0,1,48-48,46.905,46.905,0,0,1,24.469,6.7c.258.148.516.316.793.445L142.223,269.1a16.022,16.022,0,0,1-17.109,27.094L57.1,253.27c-.258-.148-.492-.3-.727-.449a15.351,15.351,0,0,0-8.043-2.152,16.018,16.018,0,0,0-16,16,15.655,15.655,0,0,0,2.07,7.957c.148.211.277.426.406.617l92.8,150.484a69.85,69.85,0,0,0,59.027,32.941h117.7a69.416,69.416,0,0,0,69.336-69.336V218.668a16,16,0,0,0-32,0,16,16,0,0,1-32,0,48,48,0,0,1,96,0V389.332A101.453,101.453,0,0,1,304.332,490.668Zm0,0" fill="#fff"/>
  </g>
</svg>
